<mxfile host="app.diagrams.net" agent="Mozilla/5.0 (Windows NT 10.0; Win64; x64) AppleWebKit/537.36 (KHTML, like Gecko) Chrome/137.0.0.0 Safari/537.36" version="27.1.5">
  <diagram name="Page-1" id="b5b7bab2-c9e2-2cf4-8b2a-24fd1a2a6d21">
    <mxGraphModel dx="1737" dy="890" grid="1" gridSize="10" guides="1" tooltips="1" connect="1" arrows="1" fold="1" page="1" pageScale="1" pageWidth="827" pageHeight="1169" background="none" math="0" shadow="0">
      <root>
        <mxCell id="0" />
        <mxCell id="1" parent="0" />
        <mxCell id="lQwyarkYGZv5bvmhl-Y1-25" value="" style="edgeStyle=orthogonalEdgeStyle;rounded=0;orthogonalLoop=1;jettySize=auto;html=1;" edge="1" parent="1" source="lQwyarkYGZv5bvmhl-Y1-18" target="lQwyarkYGZv5bvmhl-Y1-23">
          <mxGeometry relative="1" as="geometry" />
        </mxCell>
        <mxCell id="lQwyarkYGZv5bvmhl-Y1-18" value="&lt;p style=&quot;margin:0px;margin-top:4px;text-align:center;&quot;&gt;&lt;i&gt;Pokemon&lt;/i&gt;&lt;/p&gt;&lt;hr size=&quot;1&quot; style=&quot;border-style:solid;&quot;&gt;&lt;p style=&quot;margin:0px;margin-left:4px;&quot;&gt;-nome : string&lt;br&gt;-tipo : TipoPokemon*&lt;/p&gt;&lt;p style=&quot;margin:0px;margin-left:4px;&quot;&gt;-lvl : int&lt;/p&gt;&lt;p style=&quot;margin:0px;margin-left:4px;&quot;&gt;-hp: int&lt;/p&gt;&lt;p style=&quot;margin:0px;margin-left:4px;&quot;&gt;-ataque : int&lt;/p&gt;&lt;p style=&quot;margin:0px;margin-left:4px;&quot;&gt;-defesa : int&lt;/p&gt;&lt;p style=&quot;margin:0px;margin-left:4px;&quot;&gt;-special : int (relativo a pokemon gen 1)&lt;/p&gt;&lt;hr size=&quot;1&quot; style=&quot;border-style:solid;&quot;&gt;&lt;p style=&quot;margin:0px;margin-left:4px;&quot;&gt;-setNome() : string&lt;/p&gt;&lt;p style=&quot;margin:0px;margin-left:4px;&quot;&gt;-atacar() : int&lt;/p&gt;&lt;p style=&quot;margin:0px;margin-left:4px;&quot;&gt;-levadano(): int&lt;/p&gt;&lt;p style=&quot;margin:0px;margin-left:4px;&quot;&gt;-status(): string&lt;/p&gt;&lt;p style=&quot;margin:0px;margin-left:4px;&quot;&gt;-aprendeataque() : string&lt;/p&gt;&lt;p style=&quot;margin:0px;margin-left:4px;&quot;&gt;-estavivo() :bool&lt;/p&gt;" style="verticalAlign=top;align=left;overflow=fill;html=1;whiteSpace=wrap;" vertex="1" parent="1">
          <mxGeometry x="114" y="355" width="200" height="245" as="geometry" />
        </mxCell>
        <mxCell id="lQwyarkYGZv5bvmhl-Y1-21" value="&lt;p style=&quot;margin:0px;margin-top:4px;text-align:center;&quot;&gt;&lt;i&gt;TipoPokemon&lt;/i&gt;&lt;/p&gt;&lt;hr size=&quot;1&quot; style=&quot;border-style:solid;&quot;&gt;&lt;p style=&quot;margin:0px;margin-left:4px;&quot;&gt;-nome : string&lt;br&gt;&lt;/p&gt;&lt;p style=&quot;margin:0px;margin-left:4px;&quot;&gt;-fraquezas : vector&lt;/p&gt;&lt;p style=&quot;margin:0px;margin-left:4px;&quot;&gt;-resistencia : vector&lt;/p&gt;&lt;hr size=&quot;1&quot; style=&quot;border-style:solid;&quot;&gt;&lt;p style=&quot;margin:0px;margin-left:4px;&quot;&gt;-getnome() : string&lt;/p&gt;&lt;p style=&quot;margin:0px;margin-left:4px;&quot;&gt;-vantagem() : Int&lt;/p&gt;&lt;p style=&quot;margin:0px;margin-left:4px;&quot;&gt;-resistencia() : int&lt;/p&gt;&lt;p style=&quot;margin:0px;margin-left:4px;&quot;&gt;&lt;br&gt;&lt;/p&gt;" style="verticalAlign=top;align=left;overflow=fill;html=1;whiteSpace=wrap;" vertex="1" parent="1">
          <mxGeometry x="554" y="325" width="200" height="140" as="geometry" />
        </mxCell>
        <mxCell id="lQwyarkYGZv5bvmhl-Y1-23" value="&lt;p style=&quot;margin:0px;margin-top:4px;text-align:center;&quot;&gt;&lt;i&gt;Moves&lt;/i&gt;&lt;/p&gt;&lt;hr size=&quot;1&quot; style=&quot;border-style:solid;&quot;&gt;&lt;p style=&quot;margin:0px;margin-left:4px;&quot;&gt;-nome : string&lt;/p&gt;&lt;p style=&quot;margin:0px;margin-left:4px;&quot;&gt;- tipo : TipoPokemon*&lt;/p&gt;&lt;p style=&quot;margin:0px;margin-left:4px;&quot;&gt;-danobase : string&lt;/p&gt;&lt;hr size=&quot;1&quot; style=&quot;border-style:solid;&quot;&gt;&lt;p style=&quot;margin:0px;margin-left:4px;&quot;&gt;-getnome()&lt;/p&gt;&lt;p style=&quot;margin:0px;margin-left:4px;&quot;&gt;-calcularDano(pokemon atacante, pokemon alvo)::int&lt;/p&gt;" style="verticalAlign=top;align=left;overflow=fill;html=1;whiteSpace=wrap;" vertex="1" parent="1">
          <mxGeometry x="34" y="675" width="320" height="170" as="geometry" />
        </mxCell>
        <mxCell id="lQwyarkYGZv5bvmhl-Y1-40" style="edgeStyle=orthogonalEdgeStyle;rounded=0;orthogonalLoop=1;jettySize=auto;html=1;exitX=0.5;exitY=1;exitDx=0;exitDy=0;entryX=0.5;entryY=0;entryDx=0;entryDy=0;" edge="1" parent="1" source="lQwyarkYGZv5bvmhl-Y1-24" target="lQwyarkYGZv5bvmhl-Y1-35">
          <mxGeometry relative="1" as="geometry" />
        </mxCell>
        <mxCell id="lQwyarkYGZv5bvmhl-Y1-24" value="&lt;p style=&quot;margin:0px;margin-top:4px;text-align:center;&quot;&gt;&lt;i&gt;NPC&lt;/i&gt;&lt;/p&gt;&lt;hr size=&quot;1&quot; style=&quot;border-style:solid;&quot;&gt;&lt;p style=&quot;margin:0px;margin-left:4px;&quot;&gt;-nome : vector(nomes)&lt;/p&gt;&lt;p style=&quot;margin:0px;margin-left:4px;&quot;&gt;-tipo : int()&lt;br&gt;&lt;/p&gt;&lt;hr size=&quot;1&quot; style=&quot;border-style:solid;&quot;&gt;&lt;p style=&quot;margin:0px;margin-left:4px;&quot;&gt;-falar()string&lt;/p&gt;&lt;p style=&quot;margin:0px;margin-left:4px;&quot;&gt;-desafiar() void&lt;/p&gt;" style="verticalAlign=top;align=left;overflow=fill;html=1;whiteSpace=wrap;" vertex="1" parent="1">
          <mxGeometry x="604" y="680" width="190" height="140" as="geometry" />
        </mxCell>
        <mxCell id="lQwyarkYGZv5bvmhl-Y1-26" value="Usa&amp;nbsp;" style="text;strokeColor=none;fillColor=none;align=left;verticalAlign=top;spacingLeft=4;spacingRight=4;overflow=hidden;rotatable=0;points=[[0,0.5],[1,0.5]];portConstraint=eastwest;whiteSpace=wrap;html=1;" vertex="1" parent="1">
          <mxGeometry x="214" y="615" width="100" height="26" as="geometry" />
        </mxCell>
        <mxCell id="lQwyarkYGZv5bvmhl-Y1-47" style="edgeStyle=orthogonalEdgeStyle;rounded=0;orthogonalLoop=1;jettySize=auto;html=1;entryX=0.5;entryY=0;entryDx=0;entryDy=0;" edge="1" parent="1" source="lQwyarkYGZv5bvmhl-Y1-31" target="lQwyarkYGZv5bvmhl-Y1-42">
          <mxGeometry relative="1" as="geometry" />
        </mxCell>
        <mxCell id="lQwyarkYGZv5bvmhl-Y1-31" value="Base" style="swimlane;fontStyle=1;align=center;verticalAlign=top;childLayout=stackLayout;horizontal=1;startSize=26;horizontalStack=0;resizeParent=1;resizeParentMax=0;resizeLast=0;collapsible=1;marginBottom=0;whiteSpace=wrap;html=1;" vertex="1" parent="1">
          <mxGeometry x="320" width="160" height="140" as="geometry" />
        </mxCell>
        <mxCell id="lQwyarkYGZv5bvmhl-Y1-32" value="-rodando : bool" style="text;strokeColor=none;fillColor=none;align=left;verticalAlign=top;spacingLeft=4;spacingRight=4;overflow=hidden;rotatable=0;points=[[0,0.5],[1,0.5]];portConstraint=eastwest;whiteSpace=wrap;html=1;" vertex="1" parent="lQwyarkYGZv5bvmhl-Y1-31">
          <mxGeometry y="26" width="160" height="26" as="geometry" />
        </mxCell>
        <mxCell id="lQwyarkYGZv5bvmhl-Y1-33" value="" style="line;strokeWidth=1;fillColor=none;align=left;verticalAlign=middle;spacingTop=-1;spacingLeft=3;spacingRight=3;rotatable=0;labelPosition=right;points=[];portConstraint=eastwest;strokeColor=inherit;" vertex="1" parent="lQwyarkYGZv5bvmhl-Y1-31">
          <mxGeometry y="52" width="160" height="8" as="geometry" />
        </mxCell>
        <mxCell id="lQwyarkYGZv5bvmhl-Y1-34" value="+init():void&lt;br&gt;+update(): Void&lt;br&gt;+draw():Void&lt;br&gt;+run():void" style="text;strokeColor=none;fillColor=none;align=left;verticalAlign=top;spacingLeft=4;spacingRight=4;overflow=hidden;rotatable=0;points=[[0,0.5],[1,0.5]];portConstraint=eastwest;whiteSpace=wrap;html=1;" vertex="1" parent="lQwyarkYGZv5bvmhl-Y1-31">
          <mxGeometry y="60" width="160" height="80" as="geometry" />
        </mxCell>
        <mxCell id="lQwyarkYGZv5bvmhl-Y1-35" value="Treinador" style="swimlane;fontStyle=1;align=center;verticalAlign=top;childLayout=stackLayout;horizontal=1;startSize=26;horizontalStack=0;resizeParent=1;resizeParentMax=0;resizeLast=0;collapsible=1;marginBottom=0;whiteSpace=wrap;html=1;" vertex="1" parent="1">
          <mxGeometry x="360" y="920" width="280" height="200" as="geometry" />
        </mxCell>
        <mxCell id="lQwyarkYGZv5bvmhl-Y1-36" value="-nome : string&lt;div&gt;- pokemons : vector(pokemonscap)&lt;/div&gt;&lt;div&gt;-inventario : Inventariojog*&lt;/div&gt;&lt;div&gt;-insignias : int&lt;/div&gt;&lt;div&gt;-dinheiro : int&lt;/div&gt;&lt;div&gt;&lt;br&gt;&lt;/div&gt;" style="text;strokeColor=none;fillColor=none;align=left;verticalAlign=top;spacingLeft=4;spacingRight=4;overflow=hidden;rotatable=0;points=[[0,0.5],[1,0.5]];portConstraint=eastwest;whiteSpace=wrap;html=1;" vertex="1" parent="lQwyarkYGZv5bvmhl-Y1-35">
          <mxGeometry y="26" width="280" height="94" as="geometry" />
        </mxCell>
        <mxCell id="lQwyarkYGZv5bvmhl-Y1-37" value="" style="line;strokeWidth=1;fillColor=none;align=left;verticalAlign=middle;spacingTop=-1;spacingLeft=3;spacingRight=3;rotatable=0;labelPosition=right;points=[];portConstraint=eastwest;strokeColor=inherit;" vertex="1" parent="lQwyarkYGZv5bvmhl-Y1-35">
          <mxGeometry y="120" width="280" height="8" as="geometry" />
        </mxCell>
        <mxCell id="lQwyarkYGZv5bvmhl-Y1-38" value="-getnome(): string&lt;div&gt;-capturar(): void&amp;nbsp;&lt;/div&gt;&lt;div&gt;&lt;br&gt;&lt;/div&gt;" style="text;strokeColor=none;fillColor=none;align=left;verticalAlign=top;spacingLeft=4;spacingRight=4;overflow=hidden;rotatable=0;points=[[0,0.5],[1,0.5]];portConstraint=eastwest;whiteSpace=wrap;html=1;" vertex="1" parent="lQwyarkYGZv5bvmhl-Y1-35">
          <mxGeometry y="128" width="280" height="72" as="geometry" />
        </mxCell>
        <mxCell id="lQwyarkYGZv5bvmhl-Y1-41" value="Desafia" style="text;strokeColor=none;fillColor=none;align=left;verticalAlign=top;spacingLeft=4;spacingRight=4;overflow=hidden;rotatable=0;points=[[0,0.5],[1,0.5]];portConstraint=eastwest;whiteSpace=wrap;html=1;" vertex="1" parent="1">
          <mxGeometry x="554" y="845" width="100" height="26" as="geometry" />
        </mxCell>
        <mxCell id="lQwyarkYGZv5bvmhl-Y1-42" value="Sprites" style="swimlane;fontStyle=1;align=center;verticalAlign=top;childLayout=stackLayout;horizontal=1;startSize=26;horizontalStack=0;resizeParent=1;resizeParentMax=0;resizeLast=0;collapsible=1;marginBottom=0;whiteSpace=wrap;html=1;" vertex="1" parent="1">
          <mxGeometry x="320" y="200" width="160" height="138" as="geometry" />
        </mxCell>
        <mxCell id="lQwyarkYGZv5bvmhl-Y1-43" value="-mostrarsprites (vector sprites)" style="text;strokeColor=none;fillColor=none;align=left;verticalAlign=top;spacingLeft=4;spacingRight=4;overflow=hidden;rotatable=0;points=[[0,0.5],[1,0.5]];portConstraint=eastwest;whiteSpace=wrap;html=1;" vertex="1" parent="lQwyarkYGZv5bvmhl-Y1-42">
          <mxGeometry y="26" width="160" height="104" as="geometry" />
        </mxCell>
        <mxCell id="lQwyarkYGZv5bvmhl-Y1-44" value="" style="line;strokeWidth=1;fillColor=none;align=left;verticalAlign=middle;spacingTop=-1;spacingLeft=3;spacingRight=3;rotatable=0;labelPosition=right;points=[];portConstraint=eastwest;strokeColor=inherit;" vertex="1" parent="lQwyarkYGZv5bvmhl-Y1-42">
          <mxGeometry y="130" width="160" height="8" as="geometry" />
        </mxCell>
        <mxCell id="lQwyarkYGZv5bvmhl-Y1-48" style="edgeStyle=orthogonalEdgeStyle;rounded=0;orthogonalLoop=1;jettySize=auto;html=1;entryX=0.521;entryY=0.005;entryDx=0;entryDy=0;entryPerimeter=0;" edge="1" parent="1" source="lQwyarkYGZv5bvmhl-Y1-43" target="lQwyarkYGZv5bvmhl-Y1-18">
          <mxGeometry relative="1" as="geometry" />
        </mxCell>
        <mxCell id="lQwyarkYGZv5bvmhl-Y1-50" style="edgeStyle=orthogonalEdgeStyle;rounded=0;orthogonalLoop=1;jettySize=auto;html=1;entryX=0.5;entryY=0;entryDx=0;entryDy=0;" edge="1" parent="1" source="lQwyarkYGZv5bvmhl-Y1-43" target="lQwyarkYGZv5bvmhl-Y1-21">
          <mxGeometry relative="1" as="geometry" />
        </mxCell>
        <mxCell id="lQwyarkYGZv5bvmhl-Y1-51" style="edgeStyle=orthogonalEdgeStyle;rounded=0;orthogonalLoop=1;jettySize=auto;html=1;entryX=0.403;entryY=0.033;entryDx=0;entryDy=0;entryPerimeter=0;" edge="1" parent="1" source="lQwyarkYGZv5bvmhl-Y1-42" target="lQwyarkYGZv5bvmhl-Y1-35">
          <mxGeometry relative="1" as="geometry" />
        </mxCell>
        <mxCell id="lQwyarkYGZv5bvmhl-Y1-56" style="edgeStyle=orthogonalEdgeStyle;rounded=0;orthogonalLoop=1;jettySize=auto;html=1;" edge="1" parent="1" source="lQwyarkYGZv5bvmhl-Y1-52" target="lQwyarkYGZv5bvmhl-Y1-36">
          <mxGeometry relative="1" as="geometry" />
        </mxCell>
        <mxCell id="lQwyarkYGZv5bvmhl-Y1-52" value="Inventario" style="swimlane;fontStyle=1;align=center;verticalAlign=top;childLayout=stackLayout;horizontal=1;startSize=26;horizontalStack=0;resizeParent=1;resizeParentMax=0;resizeLast=0;collapsible=1;marginBottom=0;whiteSpace=wrap;html=1;" vertex="1" parent="1">
          <mxGeometry x="730" y="920" width="280" height="160" as="geometry" />
        </mxCell>
        <mxCell id="lQwyarkYGZv5bvmhl-Y1-53" value="-Itens:(vector)" style="text;strokeColor=none;fillColor=none;align=left;verticalAlign=top;spacingLeft=4;spacingRight=4;overflow=hidden;rotatable=0;points=[[0,0.5],[1,0.5]];portConstraint=eastwest;whiteSpace=wrap;html=1;" vertex="1" parent="lQwyarkYGZv5bvmhl-Y1-52">
          <mxGeometry y="26" width="280" height="54" as="geometry" />
        </mxCell>
        <mxCell id="lQwyarkYGZv5bvmhl-Y1-54" value="" style="line;strokeWidth=1;fillColor=none;align=left;verticalAlign=middle;spacingTop=-1;spacingLeft=3;spacingRight=3;rotatable=0;labelPosition=right;points=[];portConstraint=eastwest;strokeColor=inherit;" vertex="1" parent="lQwyarkYGZv5bvmhl-Y1-52">
          <mxGeometry y="80" width="280" height="8" as="geometry" />
        </mxCell>
        <mxCell id="lQwyarkYGZv5bvmhl-Y1-55" value="&lt;div&gt;-Listar() string&lt;/div&gt;&lt;div&gt;-usar() void&lt;/div&gt;&lt;div&gt;-descatar() void&lt;/div&gt;&lt;div&gt;&lt;br&gt;&lt;/div&gt;" style="text;strokeColor=none;fillColor=none;align=left;verticalAlign=top;spacingLeft=4;spacingRight=4;overflow=hidden;rotatable=0;points=[[0,0.5],[1,0.5]];portConstraint=eastwest;whiteSpace=wrap;html=1;" vertex="1" parent="lQwyarkYGZv5bvmhl-Y1-52">
          <mxGeometry y="88" width="280" height="72" as="geometry" />
        </mxCell>
      </root>
    </mxGraphModel>
  </diagram>
</mxfile>
